# xmcd
#
# Track frame offsets:
#	150
#	22426
#	39073
#	53327
#	72828
#	93382
#	106877
#	122560
#	140704
#	155263
#	169731
#	188113
#
# Disc length: 2886 seconds
#
# Revision: 0
# Processed by: cddbd v1.5.1PL0 Copyright (c) Steve Scherf et al.
# Submitted via: audiograbber 1.83.01
#
DISCID=980b440c
DTITLE=DBT - Made in USA
DYEAR=1900
DGENRE=Blues
TTITLE0=So long Stevie
TTITLE1=Chante en francais
TTITLE2=Made in USA
TTITLE3=Looser
TTITLE4=Le blues sans un flouze
TTITLE5=Mister John
TTITLE6=Reveil
TTITLE7=Matin de brouillard
TTITLE8=Le blues de la metropole
TTITLE9=Gigolo
TTITLE10=L'appolon
TTITLE11=La femme est
EXTD=
EXTT0=
EXTT1=
EXTT2=
EXTT3=
EXTT4=
EXTT5=
EXTT6=
EXTT7=
EXTT8=
EXTT9=
EXTT10=
EXTT11=
PLAYORDER=
